<?xml version="1.0" encoding="UTF-8" standalone="no"?>
<!-- Created with Inkscape (http://www.inkscape.org/) -->

<svg
   width="210mm"
   height="297mm"
   viewBox="0 0 210 297"
   version="1.1"
   id="svg5"
   inkscape:version="1.1.1 (3bf5ae0d25, 2021-09-20)"
   sodipodi:docname="icons_slider.svg"
   xmlns:inkscape="http://www.inkscape.org/namespaces/inkscape"
   xmlns:sodipodi="http://sodipodi.sourceforge.net/DTD/sodipodi-0.dtd"
   xmlns="http://www.w3.org/2000/svg"
   xmlns:svg="http://www.w3.org/2000/svg">
  <sodipodi:namedview
     id="namedview7"
     pagecolor="#ffffff"
     bordercolor="#666666"
     borderopacity="1.0"
     inkscape:pageshadow="2"
     inkscape:pageopacity="0.0"
     inkscape:pagecheckerboard="0"
     inkscape:document-units="mm"
     showgrid="false"
     inkscape:zoom="1.0230034"
     inkscape:cx="482.89186"
     inkscape:cy="241.93469"
     inkscape:window-width="1708"
     inkscape:window-height="881"
     inkscape:window-x="2391"
     inkscape:window-y="77"
     inkscape:window-maximized="1"
     inkscape:current-layer="layer3" />
  <defs
     id="defs2" />
  <g
     inkscape:label="Camada 1"
     inkscape:groupmode="layer"
     id="layer1">
    <g
       id="layer3"
       inkscape:label="SVG"
       style="display:inline"
       transform="matrix(0.26458333,0,0,0.26458333,61.840322,23.675042)">
      <path
         style="fill:#e63332;fill-opacity:0.160377;stroke-width:0.207011"
         d="m -178.31293,1027.6045 c -1.57593,-0.088 -3.51368,-0.1733 -4.30609,-0.1904 l -1.44076,-0.031 0.0544,-1.5723 0.0544,-1.5723 19.22542,-23.6126 c 10.57401,-12.9869 19.32429,-23.72819 19.44507,-23.86952 0.1418,-0.16576 0.32842,-2.38624 0.52642,-6.26098 l 0.30679,-6.00402 -13.88128,-17.40947 -13.88128,-17.40944 0.11942,-2.60794 0.11942,-2.60793 h 1.79049 c 0.98476,0 3.67563,0.0687 5.9797,0.1529 l 4.18924,0.1529 v 1.58574 c 0,1.35219 0.0477,1.58708 0.3235,1.59492 0.17799,0.005 4.34734,0.20064 9.26535,0.43464 l 8.94185,0.42543 8.7585,10.98142 8.75848,10.98142 v 18.5468 18.54678 l -14.743,18.48675 -14.74302,18.4869 h -7.4641 -7.46408 l -1.6433,1.5068 -1.64327,1.5068 -1.89137,-0.041 c -1.04024,-0.024 -3.18076,-0.1133 -4.75669,-0.2012 z"
         id="path9706" />
      <path
         style="fill:#e63332;fill-opacity:0.160377;stroke-width:0.207011"
         d="m -54.805976,1027.5818 -2.47517,-2.3418 -5.38139,0.1474 c -2.95976,0.081 -6.54656,0.2095 -7.97067,0.2856 l -2.58928,0.1382 -10.72064,-13.815 -10.72064,-13.81486 h -2.33341 -2.33341 l -6.123944,-7.33676 -6.12394,-7.33678 -0.008,-2.6893 -0.008,-2.68932 -2.64343,-3.5032 -2.64343,-3.5032 -0.12193,-2.15398 c -0.0671,-1.18467 -0.12256,-6.64965 -0.1234,-12.14438 l -0.001,-9.99046 -12.10693,-14.35039 -12.10694,-14.3504 v -1.7832 c 0,-0.98076 -0.0533,-2.72641 -0.11859,-3.87922 l -0.11858,-2.09601 2.93776,-0.14058 c 1.61577,-0.0774 4.02533,-0.19172 5.3546,-0.25414 l 2.41684,-0.1133 1.83493,2.69454 1.83494,2.69457 7.68199,-0.14976 7.68196,-0.14975 9.09408,11.26475 9.094074,11.26473 0.008,10.46939 0.008,10.4694 25.96471,32.89375 25.96472,32.89366 v 2.864 2.864 h -5.31472 l -5.31474,-0.01 -2.47515,-2.3419 z"
         id="path9745" />
      <path
         style="fill:#e63332;fill-opacity:0.160377;stroke-width:0.207011"
         d="m -83.622776,961.9598 -4.30237,-5.62806 0.11566,-8.92493 0.11566,-8.92494 -1.8674,-2.61945 -1.86737,-2.61945 v -7.14328 -7.14331 l 0.85766,-0.14739 c 0.47173,-0.081 1.74701,-0.1474 2.83396,-0.1474 h 1.97628 l 13.82847,17.63785 13.82847,17.63782 -0.1349,6.64497 c -0.0743,3.65471 -0.14786,6.66059 -0.16376,6.67974 -0.0146,0.0184 -4.72875,0.10019 -10.47328,0.18044 l -10.44459,0.14556 z"
         id="path9784" />
      <path
         style="display:inline;fill:#e63332;fill-opacity:0.160377;stroke-width:0.207011"
         d="m -182.57069,854.97773 c -1.57593,-0.0879 -3.51368,-0.17337 -4.3061,-0.19041 l -1.44076,-0.0307 0.0544,-1.57234 0.0544,-1.57231 19.22543,-23.61258 c 10.57401,-12.98693 19.32429,-23.72822 19.44507,-23.86955 0.1418,-0.16576 0.32842,-2.38624 0.52642,-6.26098 l 0.30679,-6.00402 -13.88128,-17.40947 -13.88129,-17.40944 0.11942,-2.60794 0.11942,-2.60793 h 1.79049 c 0.98476,0 3.67564,0.0687 5.97971,0.1529 l 4.18924,0.1529 v 1.58574 c 0,1.35219 0.0477,1.58708 0.3235,1.59492 0.17799,0.005 4.34734,0.20064 9.26535,0.43464 l 8.94185,0.42543 8.7585,10.98142 8.75848,10.98142 v 18.5468 18.54678 l -14.743,18.48682 -14.74302,18.48684 h -7.4641 -7.46408 l -1.64331,1.5068 -1.64327,1.50682 -1.89137,-0.0414 c -1.04024,-0.0236 -3.18076,-0.1133 -4.75669,-0.20116 z"
         id="path9706-1" />
      <path
         style="display:inline;fill:#e63332;fill-opacity:0.160377;stroke-width:0.207011"
         d="m -59.063736,854.95501 -2.47517,-2.34184 -5.38139,0.1474 c -2.95976,0.081 -6.54656,0.20955 -7.97067,0.28561 l -2.58928,0.13822 -10.72064,-13.81497 -10.72064,-13.81494 -2.333414,-0.003 -2.33341,-0.003 -6.12394,-7.33675 -6.12394,-7.33678 -0.008,-2.6893 -0.008,-2.68932 -2.64343,-3.5032 -2.64343,-3.5032 -0.12193,-2.15398 c -0.0671,-1.18467 -0.12256,-6.64965 -0.1234,-12.14438 l -10e-4,-9.99046 -12.10693,-14.35039 -12.10694,-14.3504 v -1.7832 c 0,-0.98076 -0.0533,-2.72641 -0.11859,-3.87922 l -0.11858,-2.09601 2.93776,-0.14058 c 1.61577,-0.0774 4.02533,-0.19172 5.3546,-0.25414 l 2.41684,-0.1133 1.83493,2.69454 1.83494,2.69457 7.68199,-0.14976 7.68196,-0.14975 9.09408,11.26475 9.094074,11.26473 0.008,10.46939 0.008,10.4694 25.96471,32.89375 25.96471,32.89373 v 2.86397 2.86397 l -5.31472,-0.005 -5.31473,-0.005 -2.47515,-2.34184 z"
         id="path9745-5" />
      <path
         style="display:inline;fill:#e63332;fill-opacity:0.160377;stroke-width:0.207011"
         d="m -87.880536,789.33296 -4.30237,-5.62806 0.11566,-8.92493 0.11566,-8.92494 -1.8674,-2.61945 -1.86737,-2.61945 v -7.14328 -7.14331 l 0.85766,-0.14739 c 0.47173,-0.081 1.74701,-0.1474 2.83396,-0.1474 h 1.97628 l 13.82847,17.63785 13.82847,17.63782 -0.1349,6.64497 c -0.0743,3.65471 -0.14786,6.66059 -0.16376,6.67974 -0.0146,0.0184 -4.72875,0.10019 -10.47328,0.18044 l -10.44459,0.14556 z"
         id="path9784-3" />
      <path
         style="display:inline;fill:#e63332;fill-opacity:0.160377;stroke-width:0.207011"
         d="m -183.14993,682.10408 c -1.57593,-0.0879 -3.51368,-0.17337 -4.30609,-0.19041 l -1.44076,-0.0307 0.0544,-1.57234 0.0544,-1.57231 19.22542,-23.61258 c 10.57401,-12.98693 19.32429,-23.72822 19.44507,-23.86955 0.1418,-0.16576 0.32842,-2.38624 0.52642,-6.26098 l 0.30679,-6.00402 -13.88128,-17.40947 -13.88128,-17.40944 0.11942,-2.60794 0.11942,-2.60793 h 1.79049 c 0.98476,0 3.67563,0.0687 5.9797,0.1529 l 4.18924,0.1529 v 1.58574 c 0,1.35219 0.0477,1.58708 0.3235,1.59492 0.17799,0.005 4.34734,0.20064 9.26535,0.43464 l 8.94185,0.42543 8.7585,10.98142 8.75848,10.98142 v 18.5468 18.54678 l -14.743,18.48682 -14.74302,18.48684 h -7.4641 -7.46408 l -1.6433,1.5068 -1.64327,1.50682 -1.89137,-0.0414 c -1.04024,-0.0236 -3.18076,-0.1133 -4.75669,-0.20116 z"
         id="path9706-5" />
      <path
         style="display:inline;fill:#e63332;fill-opacity:0.160377;stroke-width:0.207011"
         d="m -59.642976,682.08136 -2.47517,-2.34184 -5.38139,0.1474 c -2.95976,0.081 -6.54656,0.20955 -7.97067,0.28561 l -2.58928,0.13822 -10.72064,-13.81497 -10.72064,-13.81494 -2.333414,-0.003 -2.33341,-0.003 -6.12394,-7.33675 -6.12394,-7.33678 -0.008,-2.6893 -0.008,-2.68932 -2.64343,-3.5032 -2.64343,-3.5032 -0.12193,-2.15398 c -0.0671,-1.18467 -0.12256,-6.64965 -0.1234,-12.14438 l -10e-4,-9.99046 -12.10693,-14.35039 -12.10694,-14.3504 v -1.7832 c 0,-0.98076 -0.0533,-2.72641 -0.11859,-3.87922 l -0.11858,-2.09601 2.93776,-0.14058 c 1.61577,-0.0774 4.02533,-0.19172 5.3546,-0.25414 l 2.41684,-0.1133 1.83493,2.69454 1.83494,2.69457 7.68199,-0.14976 7.68196,-0.14975 9.09408,11.26475 9.094074,11.26473 0.008,10.46939 0.008,10.4694 25.96471,32.89375 25.96471,32.89373 v 2.86397 2.86397 l -5.31472,-0.005 -5.31473,-0.005 -2.47515,-2.34184 z"
         id="path9745-6" />
      <path
         style="display:inline;fill:#e63332;fill-opacity:0.160377;stroke-width:0.207011"
         d="m -88.459776,616.45931 -4.30237,-5.62806 0.11566,-8.92493 0.11566,-8.92494 -1.8674,-2.61945 -1.86737,-2.61945 v -7.14328 -7.14331 l 0.85766,-0.14739 c 0.47173,-0.081 1.74701,-0.1474 2.83396,-0.1474 h 1.97628 l 13.82847,17.63785 13.82847,17.63782 -0.1349,6.64497 c -0.0743,3.65471 -0.14786,6.66059 -0.16376,6.67974 -0.0146,0.0184 -4.72875,0.10019 -10.47328,0.18044 l -10.44459,0.14556 z"
         id="path9784-9" />
      <path
         style="display:inline;fill:#e63332;fill-opacity:0.160377;stroke-width:0.207011"
         d="m -183.7017,495.11215 c -1.57593,-0.0879 -3.51368,-0.17337 -4.3061,-0.19041 l -1.44076,-0.0307 0.0544,-1.57234 0.0544,-1.57231 19.22543,-23.61258 c 10.57401,-12.98693 19.32429,-23.72822 19.44507,-23.86955 0.1418,-0.16576 0.32842,-2.38624 0.52642,-6.26098 l 0.30679,-6.00402 -13.88128,-17.40947 -13.88129,-17.40944 0.11942,-2.60794 0.11942,-2.60793 h 1.79049 c 0.98476,0 3.67564,0.0687 5.97971,0.1529 l 4.18924,0.1529 v 1.58574 c 0,1.35219 0.0477,1.58708 0.3235,1.59492 0.17799,0.005 4.34734,0.20064 9.26535,0.43464 l 8.94185,0.42543 8.7585,10.98142 8.75848,10.98142 v 18.5468 18.54678 l -14.743,18.48682 -14.74302,18.48684 h -7.4641 -7.46408 l -1.64331,1.5068 -1.64327,1.50682 -1.89137,-0.0414 c -1.04024,-0.0236 -3.18076,-0.1133 -4.75669,-0.20116 z"
         id="path9706-1-1" />
      <path
         style="display:inline;fill:#e63332;fill-opacity:0.160377;stroke-width:0.207011"
         d="m -60.194746,495.08943 -2.47517,-2.34184 -5.38139,0.1474 c -2.95976,0.081 -6.54656,0.20955 -7.97067,0.28561 l -2.58928,0.13822 -10.72064,-13.81497 -10.720644,-13.81494 -2.33341,-0.003 -2.33341,-0.003 -6.12394,-7.33675 -6.12394,-7.33678 -0.008,-2.6893 -0.008,-2.68932 -2.64343,-3.5032 -2.64343,-3.5032 -0.12193,-2.15398 c -0.0671,-1.18467 -0.12256,-6.64965 -0.1234,-12.14438 l -0.001,-9.99046 -12.10693,-14.35039 -12.10694,-14.3504 v -1.7832 c 0,-0.98076 -0.0533,-2.72641 -0.11859,-3.87922 l -0.11858,-2.09601 2.93776,-0.14058 c 1.61577,-0.0774 4.02533,-0.19172 5.3546,-0.25414 l 2.41684,-0.1133 1.83493,2.69454 1.83494,2.69457 7.68199,-0.14976 7.68196,-0.14975 9.09408,11.26475 9.094074,11.26473 0.008,10.46939 0.008,10.4694 25.96471,32.89375 25.96471,32.89373 v 2.86397 2.86397 l -5.31471,-0.005 -5.31474,-0.005 -2.47515,-2.34184 z"
         id="path9745-5-5" />
      <path
         style="display:inline;fill:#e63332;fill-opacity:0.160377;stroke-width:0.207011"
         d="m -89.011546,429.46738 -4.30237,-5.62806 0.11566,-8.92493 0.11566,-8.92494 -1.8674,-2.61945 -1.86737,-2.61945 v -7.14328 -7.14331 l 0.85766,-0.14739 c 0.47173,-0.081 1.74701,-0.1474 2.83396,-0.1474 h 1.97628 l 13.82847,17.63785 13.82847,17.63782 -0.1349,6.64497 c -0.0743,3.65471 -0.14787,6.66059 -0.16376,6.67974 -0.0146,0.0184 -4.72875,0.10019 -10.47328,0.18044 l -10.44459,0.14556 z"
         id="path9784-3-8" />
      <path
         style="display:inline;fill:#e63332;fill-opacity:0.160377;stroke-width:0.207011"
         d="m -181.95334,284.26663 c -1.57593,-0.0879 -3.51368,-0.17337 -4.3061,-0.19041 l -1.44076,-0.0307 0.0544,-1.57234 0.0544,-1.57231 19.22543,-23.61258 c 10.57401,-12.98693 19.32429,-23.72822 19.44507,-23.86955 0.1418,-0.16576 0.32842,-2.38624 0.52642,-6.26098 l 0.30679,-6.00402 -13.88128,-17.40947 -13.88129,-17.40944 0.11942,-2.60794 0.11942,-2.60793 h 1.79049 c 0.98476,0 3.67564,0.0687 5.97971,0.1529 l 4.18924,0.1529 v 1.58574 c 0,1.35219 0.0477,1.58708 0.3235,1.59492 0.17799,0.005 4.34734,0.20064 9.26535,0.43464 l 8.94185,0.42543 8.7585,10.98142 8.75848,10.98142 v 18.5468 18.54678 l -14.743,18.48682 -14.74302,18.48684 h -7.4641 -7.46408 l -1.64331,1.5068 -1.64327,1.50682 -1.89137,-0.0414 c -1.04024,-0.0236 -3.18076,-0.1133 -4.75669,-0.20116 z"
         id="path9706-1-3" />
      <path
         style="display:inline;fill:#e63332;fill-opacity:0.160377;stroke-width:0.207011"
         d="m -58.446386,284.24391 -2.47517,-2.34184 -5.38139,0.1474 c -2.95976,0.081 -6.54656,0.20955 -7.97067,0.28561 l -2.58928,0.13822 -10.72064,-13.81497 -10.72064,-13.81494 -2.333414,-0.003 -2.33341,-0.003 -6.12394,-7.33675 -6.12394,-7.33678 -0.008,-2.6893 -0.008,-2.68932 -2.64343,-3.5032 -2.64343,-3.5032 -0.12193,-2.15398 c -0.0671,-1.18467 -0.12256,-6.64965 -0.1234,-12.14438 l -10e-4,-9.99046 -12.10693,-14.35039 -12.10694,-14.3504 v -1.7832 c 0,-0.98076 -0.0533,-2.72641 -0.11859,-3.87922 l -0.11858,-2.09601 2.93776,-0.14058 c 1.61577,-0.0774 4.02533,-0.19172 5.3546,-0.25414 l 2.41684,-0.1133 1.83493,2.69454 1.83494,2.69457 7.68199,-0.14976 7.68196,-0.14975 9.09408,11.26475 9.094074,11.26473 0.008,10.46939 0.008,10.4694 25.96471,32.89375 25.96471,32.89373 v 2.86397 2.86397 l -5.31472,-0.005 -5.31474,-0.005 -2.47514,-2.34184 z"
         id="path9745-5-6" />
      <path
         style="display:inline;fill:#e63332;fill-opacity:0.160377;stroke-width:0.207011"
         d="m -87.263186,218.62186 -4.30237,-5.62806 0.11566,-8.92493 0.11566,-8.92494 -1.8674,-2.61945 -1.86737,-2.61945 v -7.14328 -7.14331 l 0.85766,-0.14739 c 0.47173,-0.081 1.74701,-0.1474 2.83396,-0.1474 h 1.97628 l 13.82847,17.63785 13.82847,17.63782 -0.1349,6.64497 c -0.0743,3.65471 -0.14786,6.66059 -0.16376,6.67974 -0.0146,0.0184 -4.72875,0.10019 -10.47328,0.18044 l -10.44459,0.14556 z"
         id="path9784-3-86" />
      <path
         style="display:inline;fill:#e63332;fill-opacity:0.160377;stroke-width:0.207011"
         d="m -183.51009,63.494794 c -1.57593,-0.0879 -3.51368,-0.17337 -4.30609,-0.19041 l -1.44076,-0.0307 0.0544,-1.57234 0.0544,-1.57231 19.22542,-23.612579 c 10.57401,-12.98693 19.32429,-23.72822 19.44507,-23.86955 0.1418,-0.16576 0.32842,-2.38624 0.52642,-6.2609796 l 0.30679,-6.00401972 -13.88128,-17.40947068 -13.88128,-17.40944 0.11942,-2.60794 0.11942,-2.607929 h 1.79049 c 0.98476,0 3.67563,0.0687 5.9797,0.1529 l 4.18924,0.1529 v 1.585739 c 0,1.35219 0.0477,1.58708 0.3235,1.59492 0.17799,0.005 4.34734,0.20064 9.26535,0.43464 l 8.94185,0.42543 8.7585,10.98142 8.75848,10.981421 V 5.2032955 23.750075 l -14.743,18.48682 -14.74302,18.486839 h -7.4641 -7.46408 l -1.6433,1.5068 -1.64327,1.50682 -1.89137,-0.0414 c -1.04024,-0.0236 -3.18076,-0.1133 -4.75669,-0.20116 z"
         id="path9706-5-4" />
      <path
         style="display:inline;fill:#e63332;fill-opacity:0.160377;stroke-width:0.207011"
         d="m -60.003136,63.472074 -2.47517,-2.34184 -5.38139,0.1474 c -2.95976,0.081 -6.54656,0.20955 -7.97067,0.28561 l -2.58928,0.13822 -10.72064,-13.814969 -10.72064,-13.81494 -2.333414,-0.003 -2.33341,-0.003 -6.12394,-7.33675 -6.12394,-7.33678 -0.008,-2.6893 -0.008,-2.68932 -2.64343,-3.5032 -2.64343,-3.5031996 -0.12193,-2.1539797 c -0.0671,-1.18467 -0.12256,-6.64965 -0.1234,-12.14438 l -0.001,-9.9904607 -12.10693,-14.35039 -12.10694,-14.350399 v -1.7832 c 0,-0.98076 -0.0533,-2.72641 -0.11859,-3.87922 l -0.11858,-2.09601 2.93776,-0.14058 c 1.61577,-0.0774 4.02533,-0.19172 5.3546,-0.25414 l 2.41684,-0.1133 1.83493,2.69454 1.83494,2.69457 7.68199,-0.14976 7.68196,-0.14975 9.09408,11.264749 9.094074,11.26473 0.008,10.46939 0.008,10.4694007 25.96471,32.8937493 25.96471,32.893729 v 2.86397 2.86397 l -5.31471,-0.005 -5.31474,-0.005 -2.47515,-2.34184 z"
         id="path9745-6-4" />
      <path
         style="display:inline;fill:#e63332;fill-opacity:0.160377;stroke-width:0.207011"
         d="m -88.819936,-2.1499743 -4.30237,-5.62806 0.11566,-8.9249307 0.11566,-8.92494 -1.8674,-2.61945 -1.86737,-2.61945 v -7.14328 -7.143309 l 0.85766,-0.14739 c 0.47173,-0.081 1.74701,-0.1474 2.83396,-0.1474 h 1.97628 l 13.82847,17.637849 13.82847,17.637821 -0.1349,6.6449697 c -0.0743,3.65470998 -0.14786,6.66059 -0.16376,6.67974 -0.0146,0.0184 -4.72875,0.10019 -10.47328,0.18044 l -10.44459,0.14556 z"
         id="path9784-9-4" />
      <path
         style="display:inline;fill:#e63332;fill-opacity:0.160377;stroke-width:0.207011"
         d="m 97.473296,1028.9668 c -1.57593,-0.088 -3.51368,-0.1733 -4.30609,-0.1904 l -1.44076,-0.031 0.0544,-1.5723 0.0544,-1.5723 19.225424,-23.6126 c 10.57401,-12.98691 19.32429,-23.72821 19.44507,-23.86961 0.1418,-0.1657 0.32842,-2.3862 0.52642,-6.2609 l 0.30679,-6.004 -13.88128,-17.4095 -13.88128,-17.4095 0.11942,-2.6079 0.11942,-2.6079 h 1.79049 c 0.98476,0 3.67563,0.069 5.9797,0.1529 l 4.18924,0.1529 v 1.5857 c 0,1.3522 0.0477,1.5871 0.3235,1.5949 0.17799,0.01 4.34734,0.2007 9.26535,0.4347 l 8.94185,0.4254 8.7585,10.9814 8.75848,10.9814 v 18.5468 18.5468 l -14.743,18.48681 -14.74302,18.4869 h -7.4641 -7.46408 l -1.6433,1.5068 -1.64327,1.5068 -1.89137,-0.041 c -1.04024,-0.024 -3.180764,-0.1133 -4.756694,-0.2012 z"
         id="path9706-0" />
      <path
         style="display:inline;fill:#e63332;fill-opacity:0.160377;stroke-width:0.207011"
         d="m 220.98024,1028.9441 -2.47517,-2.3418 -5.38139,0.1474 c -2.95976,0.081 -6.54655,0.2095 -7.97066,0.2856 l -2.58928,0.1382 -10.72064,-13.815 -10.72064,-13.81486 h -2.33341 -2.33341 l -6.12394,-7.33675 -6.12394,-7.3368 -0.008,-2.6893 -0.008,-2.6893 -2.64343,-3.5032 -2.64343,-3.5032 -0.12193,-2.154 c -0.0671,-1.1847 -0.12256,-6.6497 -0.1234,-12.1444 l -0.001,-9.9905 -12.10693,-14.3504 -12.10694,-14.3504 v -1.7832 c 0,-0.9807 -0.0533,-2.7264 -0.11859,-3.8792 l -0.11858,-2.096 2.93776,-0.1406 c 1.61577,-0.077 4.02533,-0.1917 5.3546,-0.2541 l 2.41684,-0.1133 1.83493,2.6945 1.83494,2.6946 7.68199,-0.1498 7.68196,-0.1497 9.09408,11.2647 9.09407,11.2648 0.008,10.4694 0.008,10.4694 25.96471,32.8937 25.96471,32.89371 v 2.864 2.864 h -5.31472 l -5.31473,-0.01 -2.47516,-2.3419 z"
         id="path9745-2" />
      <path
         style="display:inline;fill:#e63332;fill-opacity:0.160377;stroke-width:0.207011"
         d="m 192.16345,963.32209 -4.30237,-5.6281 0.11566,-8.9249 0.11566,-8.925 -1.8674,-2.6194 -1.86737,-2.6195 v -7.1432 -7.1434 l 0.85766,-0.1473 c 0.47173,-0.081 1.74701,-0.1474 2.83396,-0.1474 h 1.97628 l 13.82847,17.6378 13.82846,17.6378 -0.1349,6.645 c -0.0743,3.6547 -0.14786,6.6606 -0.16376,6.6797 -0.0146,0.018 -4.72875,0.1002 -10.47327,0.1805 l -10.44459,0.1455 z"
         id="path9784-7" />
      <path
         style="display:inline;fill:#e63332;fill-opacity:0.160377;stroke-width:0.207011"
         d="m 93.215536,856.33999 c -1.57593,-0.088 -3.51368,-0.1734 -4.3061,-0.1904 l -1.44076,-0.031 0.0544,-1.5723 0.0544,-1.5724 19.225434,-23.6125 c 10.57401,-12.987 19.32429,-23.7283 19.44507,-23.8696 0.1418,-0.1657 0.32842,-2.3862 0.52642,-6.261 l 0.30679,-6.004 -13.88128,-17.4095 -13.881294,-17.4094 0.11942,-2.6079 0.11942,-2.608 h 1.790494 c 0.98476,0 3.67564,0.069 5.97971,0.1529 l 4.18924,0.1529 v 1.5858 c 0,1.3522 0.0477,1.5871 0.3235,1.5949 0.17799,0 4.34734,0.2006 9.26535,0.4346 l 8.94185,0.4255 8.7585,10.9814 8.75848,10.9814 v 18.5468 18.5468 l -14.743,18.4868 -14.74302,18.4868 h -7.4641 -7.46408 l -1.64331,1.5068 -1.643274,1.5069 -1.89137,-0.041 c -1.04024,-0.024 -3.18076,-0.1133 -4.75669,-0.2012 z"
         id="path9706-1-5" />
      <path
         style="display:inline;fill:#e63332;fill-opacity:0.160377;stroke-width:0.207011"
         d="m 216.72248,856.31729 -2.47517,-2.3419 -5.38139,0.1474 c -2.95975,0.081 -6.54655,0.2096 -7.97066,0.2856 l -2.58928,0.1383 -10.72064,-13.815 -10.72064,-13.8149 h -2.33341 -2.33341 l -6.12394,-7.3368 -6.12394,-7.3368 -0.008,-2.6893 -0.008,-2.6893 -2.64343,-3.5032 -2.64343,-3.5032 -0.12193,-2.154 c -0.0671,-1.1846 -0.12256,-6.6496 -0.1234,-12.1443 l -0.001,-9.9905 -12.10693,-14.3504 -12.10694,-14.3504 v -1.7832 c 0,-0.9808 -0.0533,-2.7264 -0.11859,-3.8792 l -0.11858,-2.096 2.93776,-0.1406 c 1.61577,-0.077 4.02533,-0.1917 5.3546,-0.2541 l 2.41684,-0.1133 1.83493,2.6945 1.83494,2.6946 7.68199,-0.1498 7.68196,-0.1498 9.09408,11.2648 9.09407,11.2647 0.008,10.4694 0.008,10.4694 25.96471,32.8938 25.9647,32.8937 v 2.864 2.8639 h -5.31472 l -5.31473,-0.01 -2.47515,-2.3418 z"
         id="path9745-5-56" />
      <path
         style="display:inline;fill:#e63332;fill-opacity:0.160377;stroke-width:0.207011"
         d="m 187.90569,790.69519 -4.30237,-5.628 0.11566,-8.925 0.11566,-8.9249 -1.8674,-2.6194 -1.86737,-2.6195 v -7.1433 -7.1433 l 0.85766,-0.1474 c 0.47173,-0.081 1.74701,-0.1474 2.83396,-0.1474 h 1.97628 l 13.82847,17.6379 13.82846,17.6378 -0.1349,6.645 c -0.0743,3.6547 -0.14786,6.6605 -0.16376,6.6797 -0.0146,0.018 -4.72874,0.1002 -10.47327,0.1804 l -10.44459,0.1456 z"
         id="path9784-3-5" />
      <path
         style="display:inline;fill:#e63332;fill-opacity:0.160377;stroke-width:0.207011"
         d="m 92.636296,683.46639 c -1.57593,-0.088 -3.51368,-0.1734 -4.30609,-0.1905 l -1.44076,-0.031 0.0544,-1.5723 0.0544,-1.5723 19.225424,-23.6126 c 10.57401,-12.9869 19.32429,-23.7282 19.44507,-23.8695 0.1418,-0.1658 0.32842,-2.3863 0.52642,-6.261 l 0.30679,-6.004 -13.88128,-17.4095 -13.881284,-17.4094 0.11942,-2.608 0.11942,-2.6079 h 1.790494 c 0.98476,0 3.67563,0.069 5.9797,0.1529 l 4.18924,0.1529 v 1.5857 c 0,1.3522 0.0477,1.5871 0.3235,1.5949 0.17799,0.01 4.34734,0.2007 9.26535,0.4347 l 8.94185,0.4254 8.7585,10.9814 8.75848,10.9815 v 18.5467 18.5468 l -14.743,18.4868 -14.74302,18.4869 h -7.4641 -7.46408 l -1.6433,1.5068 -1.643274,1.5068 -1.89137,-0.041 c -1.04024,-0.024 -3.18076,-0.1133 -4.75669,-0.2012 z"
         id="path9706-5-7" />
      <path
         style="display:inline;fill:#e63332;fill-opacity:0.160377;stroke-width:0.207011"
         d="m 216.14324,683.44359 -2.47517,-2.3418 -5.38138,0.1474 c -2.95976,0.081 -6.54656,0.2095 -7.97067,0.2856 l -2.58928,0.1382 -10.72064,-13.8149 -10.72064,-13.815 h -2.33341 -2.33341 l -6.12394,-7.3367 -6.12394,-7.3368 -0.008,-2.6893 -0.008,-2.6893 -2.64343,-3.5032 -2.64343,-3.5032 -0.12193,-2.154 c -0.0671,-1.1847 -0.12256,-6.6497 -0.1234,-12.1444 l -0.001,-9.9905 -12.10693,-14.3503 -12.10694,-14.3505 v -1.7831 c 0,-0.9808 -0.0533,-2.7265 -0.11859,-3.8793 l -0.11858,-2.096 2.93776,-0.1406 c 1.61577,-0.077 4.02533,-0.1917 5.3546,-0.2541 l 2.41684,-0.1133 1.83493,2.6945 1.83494,2.6946 7.68199,-0.1498 7.68196,-0.1497 9.09408,11.2647 9.09407,11.2648 0.008,10.4694 0.008,10.4694 25.96471,32.8937 25.9647,32.8937 v 2.864 2.864 l -5.31471,-0.01 h -5.31474 l -2.47515,-2.3419 z"
         id="path9745-6-0" />
      <path
         style="display:inline;fill:#e63332;fill-opacity:0.160377;stroke-width:0.207011"
         d="m 187.32645,617.82159 -4.30237,-5.6281 0.11566,-8.9249 0.11566,-8.9249 -1.8674,-2.6195 -1.86737,-2.6194 v -7.1433 -7.1433 l 0.85766,-0.1474 c 0.47173,-0.081 1.74701,-0.1474 2.83396,-0.1474 h 1.97628 l 13.82847,17.6378 13.82846,17.6378 -0.1349,6.645 c -0.0743,3.6547 -0.14786,6.6606 -0.16376,6.6798 -0.0146,0.018 -4.72874,0.1001 -10.47327,0.1804 l -10.44459,0.1456 z"
         id="path9784-9-3" />
      <path
         style="display:inline;fill:#e63332;fill-opacity:0.160377;stroke-width:0.207011"
         d="m 92.084526,496.47441 c -1.57593,-0.0879 -3.51368,-0.17337 -4.3061,-0.19041 l -1.44076,-0.0307 0.0544,-1.57234 0.0544,-1.57231 19.225434,-23.61258 c 10.57401,-12.98693 19.32429,-23.72822 19.44507,-23.86955 0.1418,-0.16576 0.32842,-2.38624 0.52642,-6.26098 l 0.30679,-6.00402 -13.88128,-17.40947 -13.881294,-17.40944 0.11942,-2.60794 0.11942,-2.60793 h 1.790494 c 0.98476,0 3.67564,0.0687 5.97971,0.1529 l 4.18924,0.1529 v 1.58574 c 0,1.35219 0.0477,1.58708 0.3235,1.59492 0.17799,0.005 4.34734,0.20064 9.26535,0.43464 l 8.94185,0.42543 8.7585,10.98142 8.75848,10.98142 v 18.5468 18.54678 l -14.743,18.48682 -14.74302,18.48684 h -7.4641 -7.46408 l -1.64331,1.5068 -1.643274,1.50682 -1.89137,-0.0414 c -1.04024,-0.0236 -3.18076,-0.1133 -4.75669,-0.20116 z"
         id="path9706-1-1-9" />
      <path
         style="display:inline;fill:#e63332;fill-opacity:0.160377;stroke-width:0.207011"
         d="m 215.59147,496.45169 -2.47517,-2.34184 -5.38138,0.1474 c -2.95976,0.081 -6.54656,0.20955 -7.97067,0.28561 l -2.58928,0.13822 -10.72064,-13.81497 -10.72064,-13.81494 -2.33341,-0.003 -2.33341,-0.003 -6.12394,-7.33675 -6.12394,-7.33678 -0.008,-2.6893 -0.008,-2.68932 -2.64343,-3.5032 -2.64343,-3.5032 -0.12193,-2.15398 c -0.0671,-1.18467 -0.12256,-6.64965 -0.1234,-12.14438 l -0.001,-9.99046 -12.10693,-14.35039 -12.10694,-14.3504 v -1.7832 c 0,-0.98076 -0.0533,-2.72641 -0.11859,-3.87922 l -0.11858,-2.09601 2.93776,-0.14058 c 1.61577,-0.0774 4.02533,-0.19172 5.3546,-0.25414 l 2.41684,-0.1133 1.83493,2.69454 1.83494,2.69457 7.68199,-0.14976 7.68196,-0.14975 9.09408,11.26475 9.09407,11.26473 0.008,10.46939 0.008,10.4694 25.96471,32.89375 25.9647,32.89373 v 2.86397 2.86397 l -5.31471,-0.005 -5.31474,-0.005 -2.47515,-2.34184 z"
         id="path9745-5-5-9" />
      <path
         style="display:inline;fill:#e63332;fill-opacity:0.160377;stroke-width:0.207011"
         d="m 186.77468,430.82964 -4.30237,-5.62806 0.11566,-8.92493 0.11566,-8.92494 -1.8674,-2.61945 -1.86737,-2.61945 v -7.14328 -7.14331 l 0.85766,-0.14739 c 0.47173,-0.081 1.74701,-0.1474 2.83396,-0.1474 h 1.97628 l 13.82847,17.63785 13.82846,17.63782 -0.1349,6.64497 c -0.0743,3.65471 -0.14787,6.66059 -0.16376,6.67974 -0.0146,0.0184 -4.72874,0.10019 -10.47327,0.18044 l -10.44459,0.14556 z"
         id="path9784-3-8-2" />
      <path
         style="display:inline;fill:#e63332;fill-opacity:0.160377;stroke-width:0.207011"
         d="m 93.832886,285.62889 c -1.57593,-0.0879 -3.51368,-0.17337 -4.3061,-0.19041 l -1.44076,-0.0307 0.0544,-1.57234 0.0544,-1.57231 19.225434,-23.61258 c 10.57401,-12.98693 19.32429,-23.72822 19.44507,-23.86955 0.1418,-0.16576 0.32842,-2.38624 0.52642,-6.26098 l 0.30679,-6.00402 -13.88128,-17.40947 -13.881294,-17.40944 0.119424,-2.60794 0.11942,-2.60793 h 1.79049 c 0.98476,0 3.67564,0.0687 5.97971,0.1529 l 4.18924,0.1529 v 1.58574 c 0,1.35219 0.0477,1.58708 0.3235,1.59492 0.17799,0.005 4.34734,0.20064 9.26535,0.43464 l 8.94185,0.42543 8.7585,10.98142 8.75848,10.98142 v 18.5468 18.54678 l -14.743,18.48682 -14.74302,18.48684 h -7.4641 -7.46408 l -1.64331,1.5068 -1.64327,1.50682 -1.891374,-0.0414 c -1.04024,-0.0236 -3.18076,-0.1133 -4.75669,-0.20116 z"
         id="path9706-1-3-9" />
      <path
         style="display:inline;fill:#e63332;fill-opacity:0.160377;stroke-width:0.207011"
         d="m 217.33983,285.60617 -2.47517,-2.34184 -5.38139,0.1474 c -2.95975,0.081 -6.54655,0.20955 -7.97066,0.28561 l -2.58928,0.13822 -10.72064,-13.81497 -10.72064,-13.81494 -2.33341,-0.003 -2.33341,-0.003 -6.12394,-7.33675 -6.12394,-7.33678 -0.008,-2.6893 -0.008,-2.68932 -2.64343,-3.5032 -2.64343,-3.5032 -0.12193,-2.15398 c -0.0671,-1.18467 -0.12256,-6.64965 -0.1234,-12.14438 l -0.001,-9.99046 -12.10693,-14.35039 -12.10694,-14.3504 v -1.7832 c 0,-0.98076 -0.0533,-2.72641 -0.11859,-3.87922 l -0.11858,-2.09601 2.93776,-0.14058 c 1.61577,-0.0774 4.02533,-0.19172 5.3546,-0.25414 l 2.41684,-0.1133 1.83493,2.69454 1.83494,2.69457 7.68199,-0.14976 7.68196,-0.14975 9.09408,11.26475 9.09407,11.26473 0.008,10.46939 0.008,10.4694 25.96471,32.89375 25.9647,32.89373 v 2.86397 2.86397 l -5.31472,-0.005 -5.31474,-0.005 -2.47514,-2.34184 z"
         id="path9745-5-6-4" />
      <path
         style="display:inline;fill:#e63332;fill-opacity:0.160377;stroke-width:0.207011"
         d="m 188.52304,219.98412 -4.30237,-5.62806 0.11566,-8.92493 0.11566,-8.92494 -1.8674,-2.61945 -1.86737,-2.61945 v -7.14328 -7.14331 l 0.85766,-0.14739 c 0.47173,-0.081 1.74701,-0.1474 2.83396,-0.1474 h 1.97628 l 13.82847,17.63785 13.82846,17.63782 -0.1349,6.64497 c -0.0743,3.65471 -0.14786,6.66059 -0.16376,6.67974 -0.0146,0.0184 -4.72875,0.10019 -10.47327,0.18044 l -10.44459,0.14556 z"
         id="path9784-3-86-8" />
      <path
         style="display:inline;fill:#e63332;fill-opacity:0.160377;stroke-width:0.207011"
         d="m 92.276136,64.857054 c -1.57593,-0.0879 -3.51368,-0.17337 -4.30609,-0.19041 l -1.44076,-0.0307 0.0544,-1.57234 0.0544,-1.57231 19.225424,-23.61258 c 10.57401,-12.98693 19.32429,-23.72822 19.44507,-23.86955 0.1418,-0.16576 0.32842,-2.38624 0.52642,-6.2609796 l 0.30679,-6.0040096 -13.88128,-17.4094808 -13.881284,-17.40944 0.11942,-2.60794 0.11942,-2.60792 h 1.790494 c 0.98476,0 3.67563,0.0687 5.9797,0.1529 l 4.18924,0.1529 v 1.58573 c 0,1.35219 0.0477,1.58708 0.3235,1.59492 0.17799,0.005 4.34734,0.20064 9.26535,0.43464 l 8.94185,0.42543 8.7585,10.98142 8.75848,10.981431 V 6.5655544 25.112334 l -14.743,18.48682 -14.74302,18.48684 h -7.4641 -7.46408 l -1.6433,1.5068 -1.643274,1.50682 -1.89137,-0.0414 c -1.04024,-0.0236 -3.18076,-0.1133 -4.75669,-0.20116 z"
         id="path9706-5-4-0" />
      <path
         style="display:inline;fill:#e63332;fill-opacity:0.160377;stroke-width:0.207011"
         d="m 215.78308,64.834334 -2.47517,-2.34184 -5.38138,0.1474 c -2.95976,0.081 -6.54656,0.20955 -7.97067,0.28561 l -2.58928,0.13822 -10.72064,-13.81497 -10.72064,-13.81494 -2.33341,-0.003 -2.33341,-0.003 -6.12394,-7.33675 -6.12394,-7.33678 -0.008,-2.6893 -0.008,-2.68932 -2.64343,-3.5032 -2.64343,-3.5031996 -0.12193,-2.15397 c -0.0671,-1.1846696 -0.12256,-6.64964962 -0.1234,-12.1443796 l -0.001,-9.9904708 -12.10693,-14.35038 -12.10694,-14.3504 v -1.7832 c 0,-0.98076 -0.0533,-2.72641 -0.11859,-3.87922 l -0.11858,-2.09601 2.93776,-0.14058 c 1.61577,-0.0774 4.02533,-0.19172 5.3546,-0.25414 l 2.41684,-0.1133 1.83493,2.69454 1.83494,2.69457 7.68199,-0.14976 7.68196,-0.14975 9.09408,11.26474 9.09407,11.26474 0.008,10.46938 0.008,10.4694107 25.96471,32.8937393 25.9647,32.89373 v 2.86397 2.86397 l -5.31471,-0.005 -5.31474,-0.005 -2.47515,-2.34184 z"
         id="path9745-6-4-4" />
      <path
         style="display:inline;fill:#e63332;fill-opacity:0.160377;stroke-width:0.207011"
         d="m 186.96629,-0.78770522 -4.30237,-5.62805998 0.11566,-8.9249408 0.11566,-8.92494 -1.8674,-2.61945 -1.86737,-2.61945 v -7.14328 -7.1433 l 0.85766,-0.14739 c 0.47173,-0.081 1.74701,-0.1474 2.83396,-0.1474 h 1.97628 l 13.82847,17.63784 13.82846,17.6378308 -0.1349,6.64497 c -0.0743,3.65471 -0.14786,6.66059 -0.16376,6.67974 -0.0146,0.0184 -4.72874,0.10019 -10.47327,0.18044 l -10.44459,0.14556 z"
         id="path9784-9-4-5" />
      <path
         style="display:inline;fill:#e63332;fill-opacity:0.160377;stroke-width:0.207011"
         d="m 375.08724,1026.0342 c -1.57593,-0.088 -3.51368,-0.1733 -4.30609,-0.1904 l -1.44076,-0.031 0.0544,-1.5723 0.0544,-1.5723 19.22542,-23.61256 c 10.57401,-12.98692 19.32429,-23.72822 19.44507,-23.86962 0.1418,-0.1657 0.32842,-2.3862 0.52642,-6.2609 l 0.30679,-6.004 -13.88128,-17.4095 -13.88128,-17.4095 0.11942,-2.6079 0.11942,-2.6079 h 1.79049 c 0.98476,0 3.67563,0.069 5.9797,0.1529 l 4.18924,0.1529 v 1.5857 c 0,1.3522 0.0477,1.5871 0.3235,1.5949 0.17799,0.01 4.34734,0.2007 9.26535,0.4347 l 8.94185,0.4254 8.7585,10.9814 8.75848,10.9814 v 18.5468 18.5468 l -14.743,18.48678 -14.74302,18.4869 h -7.4641 -7.46408 l -1.6433,1.5068 -1.64327,1.5068 -1.89137,-0.041 c -1.04024,-0.024 -3.18076,-0.1133 -4.75669,-0.2012 z"
         id="path9706-0-1" />
      <path
         style="display:inline;fill:#e63332;fill-opacity:0.160377;stroke-width:0.207011"
         d="m 498.59419,1026.0115 -2.47517,-2.3418 -5.38139,0.1474 c -2.95976,0.081 -6.54656,0.2095 -7.97067,0.2856 l -2.58928,0.1382 -10.72064,-13.815 -10.72064,-13.81476 h -2.33341 -2.33341 l -6.12394,-7.33682 -6.12394,-7.3368 -0.008,-2.6893 -0.008,-2.6893 -2.64343,-3.5032 -2.64343,-3.5032 -0.12193,-2.154 c -0.0671,-1.1847 -0.12256,-6.6497 -0.1234,-12.1444 l -10e-4,-9.9905 -12.10693,-14.3504 -12.10694,-14.3504 v -1.7832 c 0,-0.9807 -0.0533,-2.7264 -0.11859,-3.8792 l -0.11858,-2.096 2.93776,-0.1406 c 1.61577,-0.077 4.02533,-0.1917 5.3546,-0.2541 l 2.41684,-0.1133 1.83493,2.6945 1.83494,2.6946 7.68199,-0.1498 7.68196,-0.1497 9.09408,11.2647 9.09407,11.2648 0.008,10.4694 0.008,10.4694 25.96471,32.8937 25.96472,32.89368 v 2.864 2.864 h -5.31472 l -5.31473,-0.01 -2.47516,-2.3419 z"
         id="path9745-2-1" />
      <path
         style="display:inline;fill:#e63332;fill-opacity:0.160377;stroke-width:0.207011"
         d="m 469.77739,960.38952 -4.30237,-5.6281 0.11566,-8.9249 0.11566,-8.925 -1.8674,-2.6194 -1.86737,-2.6195 v -7.1432 -7.1434 l 0.85766,-0.1473 c 0.47173,-0.081 1.74701,-0.1474 2.83396,-0.1474 h 1.97628 l 13.82847,17.6378 13.82847,17.6378 -0.1349,6.645 c -0.0743,3.6547 -0.14786,6.6606 -0.16376,6.6797 -0.0146,0.018 -4.72875,0.1002 -10.47328,0.1805 l -10.44459,0.1455 z"
         id="path9784-7-4" />
      <path
         style="display:inline;fill:#e63332;fill-opacity:0.160377;stroke-width:0.207011"
         d="m 370.82948,853.40742 c -1.57593,-0.088 -3.51368,-0.1734 -4.3061,-0.1904 l -1.44076,-0.031 0.0544,-1.5723 0.0544,-1.5724 19.22543,-23.6125 c 10.57401,-12.987 19.32429,-23.7283 19.44507,-23.8696 0.1418,-0.1657 0.32842,-2.3862 0.52642,-6.261 l 0.30679,-6.004 -13.88128,-17.4095 -13.88129,-17.4094 0.11942,-2.6079 0.11942,-2.608 h 1.79049 c 0.98476,0 3.67564,0.069 5.97971,0.1529 l 4.18924,0.1529 v 1.5858 c 0,1.3522 0.0477,1.5871 0.3235,1.5949 0.17799,0 4.34734,0.2006 9.26535,0.4346 l 8.94185,0.4255 8.7585,10.9814 8.75848,10.9814 v 18.5468 18.5468 l -14.743,18.4868 -14.74302,18.4868 h -7.4641 -7.46408 l -1.64331,1.5068 -1.64327,1.5069 -1.89137,-0.041 c -1.04024,-0.024 -3.18076,-0.1133 -4.75669,-0.2012 z"
         id="path9706-1-5-1" />
      <path
         style="display:inline;fill:#e63332;fill-opacity:0.160377;stroke-width:0.207011"
         d="m 494.33643,853.38472 -2.47517,-2.3419 -5.38139,0.1474 c -2.95976,0.081 -6.54656,0.2096 -7.97067,0.2856 l -2.58928,0.1383 -10.72064,-13.815 -10.72064,-13.8149 h -2.33341 -2.33341 l -6.12394,-7.3368 -6.12394,-7.3368 -0.008,-2.6893 -0.008,-2.6893 -2.64343,-3.5032 -2.64343,-3.5032 -0.12193,-2.154 c -0.0671,-1.1846 -0.12256,-6.6496 -0.1234,-12.1443 l -0.001,-9.9905 -12.10693,-14.3504 -12.10694,-14.3504 v -1.7832 c 0,-0.9808 -0.0533,-2.7264 -0.11859,-3.8792 l -0.11858,-2.096 2.93776,-0.1406 c 1.61577,-0.077 4.02533,-0.1917 5.3546,-0.2541 l 2.41684,-0.1133 1.83493,2.6945 1.83494,2.6946 7.68199,-0.1498 7.68196,-0.1498 9.09408,11.2648 9.09407,11.2647 0.008,10.4694 0.008,10.4694 25.96471,32.8938 25.96471,32.8937 v 2.864 2.8639 h -5.31472 l -5.31473,-0.01 -2.47515,-2.3418 z"
         id="path9745-5-56-7" />
      <path
         style="display:inline;fill:#e63332;fill-opacity:0.160377;stroke-width:0.207011"
         d="m 465.51963,787.76262 -4.30237,-5.628 0.11566,-8.925 0.11566,-8.9249 -1.8674,-2.6194 -1.86737,-2.6195 v -7.1433 -7.1433 l 0.85766,-0.1474 c 0.47173,-0.081 1.74701,-0.1474 2.83396,-0.1474 h 1.97628 l 13.82847,17.6379 13.82847,17.6378 -0.1349,6.645 c -0.0743,3.6547 -0.14786,6.6605 -0.16376,6.6797 -0.0146,0.018 -4.72875,0.1002 -10.47328,0.1804 l -10.44459,0.1456 z"
         id="path9784-3-5-0" />
      <path
         style="display:inline;fill:#e63332;fill-opacity:0.160377;stroke-width:0.207011"
         d="m 370.25024,680.53382 c -1.57593,-0.088 -3.51368,-0.1734 -4.30609,-0.1905 l -1.44076,-0.031 0.0544,-1.5723 0.0544,-1.5723 19.22542,-23.6126 c 10.57401,-12.9869 19.32429,-23.7282 19.44507,-23.8695 0.1418,-0.1658 0.32842,-2.3863 0.52642,-6.261 l 0.30679,-6.004 -13.88128,-17.4095 -13.88128,-17.4094 0.11942,-2.608 0.11942,-2.6079 h 1.79049 c 0.98476,0 3.67563,0.069 5.9797,0.1529 l 4.18924,0.1529 v 1.5857 c 0,1.3522 0.0477,1.5871 0.3235,1.5949 0.17799,0.01 4.34734,0.2007 9.26535,0.4347 l 8.94185,0.4254 8.7585,10.9814 8.75848,10.9815 v 18.5467 18.5468 l -14.743,18.4868 -14.74302,18.4869 h -7.4641 -7.46408 l -1.6433,1.5068 -1.64327,1.5068 -1.89137,-0.041 c -1.04024,-0.024 -3.18076,-0.1133 -4.75669,-0.2012 z"
         id="path9706-5-7-9" />
      <path
         style="display:inline;fill:#e63332;fill-opacity:0.160377;stroke-width:0.207011"
         d="m 493.75719,680.51102 -2.47517,-2.3418 -5.38139,0.1474 c -2.95976,0.081 -6.54656,0.2095 -7.97067,0.2856 l -2.58928,0.1382 -10.72064,-13.8149 -10.72064,-13.815 h -2.33341 -2.33341 l -6.12394,-7.3367 -6.12394,-7.3368 -0.008,-2.6893 -0.008,-2.6893 -2.64343,-3.5032 -2.64343,-3.5032 -0.12193,-2.154 c -0.0671,-1.1847 -0.12256,-6.6497 -0.1234,-12.1444 l -10e-4,-9.9905 -12.10693,-14.3503 -12.10694,-14.3505 v -1.7831 c 0,-0.9808 -0.0533,-2.7265 -0.11859,-3.8793 l -0.11858,-2.096 2.93776,-0.1406 c 1.61577,-0.077 4.02533,-0.1917 5.3546,-0.2541 l 2.41684,-0.1133 1.83493,2.6945 1.83494,2.6946 7.68199,-0.1498 7.68196,-0.1497 9.09408,11.2647 9.09407,11.2648 0.008,10.4694 0.008,10.4694 25.96471,32.8937 25.96471,32.8937 v 2.864 2.864 l -5.31471,-0.01 h -5.31474 l -2.47515,-2.3419 z"
         id="path9745-6-0-6" />
      <path
         style="display:inline;fill:#e63332;fill-opacity:0.160377;stroke-width:0.207011"
         d="m 464.94039,614.88902 -4.30237,-5.6281 0.11566,-8.9249 0.11566,-8.9249 -1.8674,-2.6195 -1.86737,-2.6194 v -7.1433 -7.1433 l 0.85766,-0.1474 c 0.47173,-0.081 1.74701,-0.1474 2.83396,-0.1474 h 1.97628 l 13.82847,17.6378 13.82847,17.6378 -0.1349,6.645 c -0.0743,3.6547 -0.14786,6.6606 -0.16376,6.6798 -0.0146,0.018 -4.72875,0.1001 -10.47328,0.1804 l -10.44459,0.1456 z"
         id="path9784-9-3-1" />
      <path
         style="display:inline;fill:#e63332;fill-opacity:0.160377;stroke-width:0.207011"
         d="m 369.69847,493.54184 c -1.57593,-0.0879 -3.51368,-0.17337 -4.3061,-0.19041 l -1.44076,-0.0307 0.0544,-1.57234 0.0544,-1.57231 19.22543,-23.61258 c 10.57401,-12.98693 19.32429,-23.72822 19.44507,-23.86955 0.1418,-0.16576 0.32842,-2.38624 0.52642,-6.26098 l 0.30679,-6.00402 -13.88128,-17.40947 -13.88129,-17.40944 0.11942,-2.60794 0.11942,-2.60793 h 1.79049 c 0.98476,0 3.67564,0.0687 5.97971,0.1529 l 4.18924,0.1529 v 1.58574 c 0,1.35219 0.0477,1.58708 0.3235,1.59492 0.17799,0.005 4.34734,0.20064 9.26535,0.43464 l 8.94185,0.42543 8.7585,10.98142 8.75848,10.98142 v 18.5468 18.54678 l -14.743,18.48682 -14.74302,18.48684 h -7.4641 -7.46408 l -1.64331,1.5068 -1.64327,1.50682 -1.89137,-0.0414 c -1.04024,-0.0236 -3.18076,-0.1133 -4.75669,-0.20116 z"
         id="path9706-1-1-9-0" />
      <path
         style="display:inline;fill:#e63332;fill-opacity:0.160377;stroke-width:0.207011"
         d="m 493.20542,493.51912 -2.47517,-2.34184 -5.38139,0.1474 c -2.95976,0.081 -6.54656,0.20955 -7.97067,0.28561 l -2.58928,0.13822 -10.72064,-13.81497 -10.72064,-13.81494 -2.33341,-0.003 -2.33341,-0.003 -6.12394,-7.33675 -6.12394,-7.33678 -0.008,-2.6893 -0.008,-2.68932 -2.64343,-3.5032 -2.64343,-3.5032 -0.12193,-2.15398 c -0.0671,-1.18467 -0.12256,-6.64965 -0.1234,-12.14438 l -0.001,-9.99046 -12.10693,-14.35039 -12.10694,-14.3504 v -1.7832 c 0,-0.98076 -0.0533,-2.72641 -0.11859,-3.87922 l -0.11858,-2.09601 2.93776,-0.14058 c 1.61577,-0.0774 4.02533,-0.19172 5.3546,-0.25414 l 2.41684,-0.1133 1.83493,2.69454 1.83494,2.69457 7.68199,-0.14976 7.68196,-0.14975 9.09408,11.26475 9.09407,11.26473 0.008,10.46939 0.008,10.4694 25.96471,32.89375 25.96471,32.89373 v 2.86397 2.86397 l -5.31471,-0.005 -5.31474,-0.005 -2.47515,-2.34184 z"
         id="path9745-5-5-9-0" />
      <path
         style="display:inline;fill:#e63332;fill-opacity:0.160377;stroke-width:0.207011"
         d="m 464.38862,427.89707 -4.30237,-5.62806 0.11566,-8.92493 0.11566,-8.92494 -1.8674,-2.61945 -1.86737,-2.61945 v -7.14328 -7.14331 l 0.85766,-0.14739 c 0.47173,-0.081 1.74701,-0.1474 2.83396,-0.1474 h 1.97628 l 13.82847,17.63785 13.82847,17.63782 -0.1349,6.64497 c -0.0743,3.65471 -0.14787,6.66059 -0.16376,6.67974 -0.0146,0.0184 -4.72875,0.10019 -10.47328,0.18044 l -10.44459,0.14556 z"
         id="path9784-3-8-2-0" />
      <path
         style="display:inline;fill:#e63332;fill-opacity:0.160377;stroke-width:0.207011"
         d="m 371.44683,282.69632 c -1.57593,-0.0879 -3.51368,-0.17337 -4.3061,-0.19041 l -1.44076,-0.0307 0.0544,-1.57234 0.0544,-1.57231 19.22543,-23.61258 c 10.57401,-12.98693 19.32429,-23.72822 19.44507,-23.86955 0.1418,-0.16576 0.32842,-2.38624 0.52642,-6.26098 l 0.30679,-6.00402 -13.88128,-17.40947 -13.88129,-17.40944 0.11942,-2.60794 0.11942,-2.60793 h 1.79049 c 0.98476,0 3.67564,0.0687 5.97971,0.1529 l 4.18924,0.1529 v 1.58574 c 0,1.35219 0.0477,1.58708 0.3235,1.59492 0.17799,0.005 4.34734,0.20064 9.26535,0.43464 l 8.94185,0.42543 8.7585,10.98142 8.75848,10.98142 v 18.5468 18.54678 l -14.743,18.48682 -14.74302,18.48684 h -7.4641 -7.46408 l -1.64331,1.5068 -1.64327,1.50682 -1.89137,-0.0414 c -1.04024,-0.0236 -3.18076,-0.1133 -4.75669,-0.20116 z"
         id="path9706-1-3-9-3" />
      <path
         style="display:inline;fill:#e63332;fill-opacity:0.160377;stroke-width:0.207011"
         d="m 494.95378,282.6736 -2.47517,-2.34184 -5.38139,0.1474 c -2.95976,0.081 -6.54656,0.20955 -7.97067,0.28561 l -2.58928,0.13822 -10.72064,-13.81497 -10.72064,-13.81494 -2.33341,-0.003 -2.33341,-0.003 -6.12394,-7.33675 -6.12394,-7.33678 -0.008,-2.6893 -0.008,-2.68932 -2.64343,-3.5032 -2.64343,-3.5032 -0.12193,-2.15398 c -0.0671,-1.18467 -0.12256,-6.64965 -0.1234,-12.14438 l -0.001,-9.99046 -12.10693,-14.35039 -12.10694,-14.3504 v -1.7832 c 0,-0.98076 -0.0533,-2.72641 -0.11859,-3.87922 l -0.11858,-2.09601 2.93776,-0.14058 c 1.61577,-0.0774 4.02533,-0.19172 5.3546,-0.25414 l 2.41684,-0.1133 1.83493,2.69454 1.83494,2.69457 7.68199,-0.14976 7.68196,-0.14975 9.09408,11.26475 9.09407,11.26473 0.008,10.46939 0.008,10.4694 25.96471,32.89375 25.96471,32.89373 v 2.86397 2.86397 l -5.31472,-0.005 -5.31474,-0.005 -2.47514,-2.34184 z"
         id="path9745-5-6-4-2" />
      <path
         style="display:inline;fill:#e63332;fill-opacity:0.160377;stroke-width:0.207011"
         d="m 466.13698,217.05155 -4.30237,-5.62806 0.11566,-8.92493 0.11566,-8.92494 -1.8674,-2.61945 -1.86737,-2.61945 v -7.14328 -7.14331 l 0.85766,-0.14739 c 0.47173,-0.081 1.74701,-0.1474 2.83396,-0.1474 h 1.97628 l 13.82847,17.63785 13.82847,17.63782 -0.1349,6.64497 c -0.0743,3.65471 -0.14786,6.66059 -0.16376,6.67974 -0.0146,0.0184 -4.72875,0.10019 -10.47328,0.18044 l -10.44459,0.14556 z"
         id="path9784-3-86-8-6" />
      <path
         style="display:inline;fill:#e63332;fill-opacity:0.160377;stroke-width:0.207011"
         d="m 369.89008,61.924491 c -1.57593,-0.0879 -3.51368,-0.17337 -4.30609,-0.19041 l -1.44076,-0.0307 0.0544,-1.57234 0.0544,-1.57231 19.22542,-23.61258 c 10.57401,-12.98693 19.32429,-23.72822 19.44507,-23.86955 0.1418,-0.16576 0.32842,-2.3862396 0.52642,-6.2609793 l 0.30679,-6.0040097 -13.88128,-17.409481 -13.88128,-17.40944 0.11942,-2.60794 0.11942,-2.60792 h 1.79049 c 0.98476,0 3.67563,0.0687 5.9797,0.1529 l 4.18924,0.1529 v 1.58573 c 0,1.35219 0.0477,1.58708 0.3235,1.59492 0.17799,0.005 4.34734,0.20064 9.26535,0.43464 l 8.94185,0.42543 8.7585,10.98142 8.75848,10.981431 V 3.6329917 22.179771 l -14.743,18.48682 -14.74302,18.48684 h -7.4641 -7.46408 l -1.6433,1.5068 -1.64327,1.50682 -1.89137,-0.0414 c -1.04024,-0.0236 -3.18076,-0.1133 -4.75669,-0.20116 z"
         id="path9706-5-4-0-8" />
      <path
         style="display:inline;fill:#e63332;fill-opacity:0.160377;stroke-width:0.207011"
         d="m 493.39703,61.901771 -2.47517,-2.34184 -5.38139,0.1474 c -2.95976,0.081 -6.54656,0.20955 -7.97067,0.28561 l -2.58928,0.13822 -10.72064,-13.81497 -10.72064,-13.81494 -2.33341,-0.003 -2.33341,-0.003 -6.12394,-7.33675 -6.12394,-7.33678 -0.008,-2.6893 -0.008,-2.68932 -2.64343,-3.5031996 -2.64343,-3.5031997 -0.12193,-2.15397 c -0.0671,-1.1846697 -0.12256,-6.6496497 -0.1234,-12.1443797 l -10e-4,-9.990471 -12.10693,-14.35038 -12.10694,-14.3504 v -1.7832 c 0,-0.98076 -0.0533,-2.72641 -0.11859,-3.87922 l -0.11858,-2.09601 2.93776,-0.14058 c 1.61577,-0.0774 4.02533,-0.19172 5.3546,-0.25414 l 2.41684,-0.1133 1.83493,2.69454 1.83494,2.69457 7.68199,-0.14976 7.68196,-0.14975 9.09408,11.26474 9.09407,11.26474 0.008,10.46938 0.008,10.469411 25.96471,32.893739 25.96471,32.89373 v 2.86397 2.86397 l -5.31471,-0.005 -5.31474,-0.005 -2.47515,-2.34184 z"
         id="path9745-6-4-4-1" />
      <path
         style="display:inline;fill:#e63332;fill-opacity:0.160377;stroke-width:0.207011"
         d="m 464.58023,-3.720268 -4.30237,-5.62806 0.11566,-8.924941 0.11566,-8.92494 -1.8674,-2.61945 -1.86737,-2.61945 v -7.14328 -7.1433 l 0.85766,-0.14739 c 0.47173,-0.081 1.74701,-0.1474 2.83396,-0.1474 h 1.97628 l 13.82847,17.63784 13.82847,17.637831 -0.1349,6.64497 c -0.0743,3.65471 -0.14786,6.66059 -0.16376,6.67974 -0.0146,0.0184 -4.72875,0.10019 -10.47328,0.18044 l -10.44459,0.14556 z"
         id="path9784-9-4-5-4" />
    </g>
  </g>
</svg>
