<?xml version="1.0" encoding="UTF-8" standalone="no"?>
<!-- Created with Inkscape (http://www.inkscape.org/) -->

<svg
   version="1.1"
   id="svg314"
   width="88"
   height="88"
   viewBox="0 0 88 88"
   sodipodi:docname="meganeko-icon.svg"
   inkscape:version="1.1.1 (3bf5ae0d25, 2021-09-20)"
   xmlns:inkscape="http://www.inkscape.org/namespaces/inkscape"
   xmlns:sodipodi="http://sodipodi.sourceforge.net/DTD/sodipodi-0.dtd"
   xmlns="http://www.w3.org/2000/svg"
   xmlns:svg="http://www.w3.org/2000/svg">
  <defs
     id="defs318" />
  <sodipodi:namedview
     id="namedview316"
     pagecolor="#ffffff"
     bordercolor="#666666"
     borderopacity="1.0"
     inkscape:pageshadow="2"
     inkscape:pageopacity="0.0"
     inkscape:pagecheckerboard="0"
     showgrid="false"
     inkscape:zoom="5.6568543"
     inkscape:cx="27.665553"
     inkscape:cy="37.741824"
     inkscape:window-width="1920"
     inkscape:window-height="1001"
     inkscape:window-x="-9"
     inkscape:window-y="-9"
     inkscape:window-maximized="1"
     inkscape:current-layer="layer3" />
  <g
     inkscape:groupmode="layer"
     id="layer3"
     inkscape:label="SVG"
     style="display:inline">
    <path
       style="fill:#e63332;fill-opacity:1;stroke-width:0.0883883"
       d="m 12.506951,65.580039 c -0.753511,-0.03348 -1.680016,-0.06614 -2.058901,-0.07258 l -0.6888825,-0.0117 0.02597,-0.599504 0.02597,-0.599506 9.1923875,-9.003139 c 5.055814,-4.951726 9.239648,-9.047228 9.297398,-9.101115 0.0678,-0.06323 0.15703,-0.909838 0.2517,-2.387225 l 0.14669,-2.289246 -6.637149,-6.637977 -6.637149,-6.637976 0.05709,-0.994369 0.05709,-0.994369 h 0.856095 c 0.470852,0 1.757454,0.02623 2.859116,0.05829 l 2.003022,0.05829 v 0.604619 c 0,0.515569 0.02278,0.605135 0.15468,0.60812 0.08507,0.0019 2.078622,0.0765 4.430105,0.165717 l 4.27543,0.162216 4.18776,4.18706 4.18775,4.187061 v 7.071624 7.071624 l -7.04917,7.048763 -7.04918,7.048764 h -3.568857 -3.568855 l -0.785715,0.574524 -0.785715,0.574524 -0.904331,-0.01581 c -0.497382,-0.0087 -1.520839,-0.04321 -2.27435,-0.07669 z"
       id="path9706" />
    <path
       style="fill:#e63332;fill-opacity:1;stroke-width:0.0883883"
       d="m 71.560151,65.57138 -1.18347,-0.892907 -2.57304,0.05619 c -1.41517,0.03091 -3.13015,0.07991 -3.81107,0.108898 l -1.23803,0.05271 -5.12593,-5.267446 -5.12593,-5.267446 -1.11569,-0.0013 -1.11569,-0.0013 -2.92808,-2.797401 -2.92808,-2.797401 -0.004,-1.025395 -0.004,-1.025395 -1.26392,-1.335724 -1.26392,-1.335723 -0.0583,-0.821273 c -0.0321,-0.4517 -0.0586,-2.53542 -0.059,-4.630489 l -6.6e-4,-3.809218 -5.78877,-5.4716 -5.78877,-5.4716 v -0.679909 c 0,-0.37395 -0.0255,-1.03954 -0.0567,-1.479089 l -0.0567,-0.79918 1.40465,-0.05364 c 0.77256,-0.0295 1.92466,-0.07309 2.56023,-0.09686 l 1.15558,-0.04323 0.87735,1.027395 0.87735,1.027396 3.67304,-0.05705 3.67303,-0.05705 4.34821,4.295086 4.34821,4.295087 0.004,3.99183 0.004,3.991831 12.41468,12.541914 12.41468,12.541914 v 1.091989 1.091988 l -2.54116,-0.0019 -2.54117,-0.0019 -1.18346,-0.892908 z"
       id="path9745" />
    <path
       style="fill:#e63332;fill-opacity:1;stroke-width:0.0883883"
       d="m 57.781781,40.550628 -2.05712,-2.145891 0.0553,-3.402951 0.0553,-3.402952 -0.89287,-0.998763 -0.89286,-0.998763 v -2.72363 -2.723631 l 0.41008,-0.05621 c 0.22555,-0.03092 0.83531,-0.05621 1.35502,-0.05621 h 0.94493 l 6.6119,6.725052 6.6119,6.725052 -0.0645,2.533627 c -0.0355,1.393495 -0.0707,2.539598 -0.0783,2.546894 -0.007,0.0073 -2.26099,0.03824 -5.00766,0.06877 l -4.99394,0.0555 z"
       id="path9784" />
  </g>
</svg>
